<?xml version="1.0" standalone="no"?>
<!DOCTYPE svg PUBLIC "-//W3C//DTD SVG 20010904//EN"
 "http://www.w3.org/TR/2001/REC-SVG-20010904/DTD/svg10.dtd">
<svg version="1.0" xmlns="http://www.w3.org/2000/svg"
 width="900.000000pt" height="900.000000pt" viewBox="0 0 900.000000 900.000000"
 preserveAspectRatio="xMidYMid meet">

<g transform="translate(0.000000,900.000000) scale(0.100000,-0.100000)"
fill="#000000" stroke="none">
<path d="M1782 7330 c-190 -12 -177 -5 -191 -97 -18 -123 -26 -713 -12 -878
29 -322 105 -634 173 -711 19 -21 19 -23 -6 -80 -13 -33 -45 -100 -69 -149
-98 -199 -189 -486 -236 -740 -23 -126 -51 -358 -51 -427 0 -41 -3 -48 -22
-53 -13 -3 -203 -6 -423 -7 l-400 -3 -3 -52 -3 -53 1253 -1 c4344 -4 5471 -4
5951 0 l537 4 0 53 0 54 -467 0 c-258 0 -473 4 -479 8 -6 4 -16 71 -23 150
-36 416 -91 628 -281 1074 l-32 77 39 48 c149 181 229 443 264 864 11 141 9
852 -3 864 -14 15 -545 26 -732 15 -550 -31 -850 -124 -1038 -323 l-66 -70
-59 21 c-174 63 -401 122 -593 154 -160 26 -581 36 -757 18 -142 -14 -344 -51
-472 -87 l-93 -26 -40 47 c-85 100 -260 197 -433 242 -218 55 -329 66 -730 69
-203 2 -430 -1 -503 -5z m898 -115 c265 -34 425 -79 549 -155 73 -44 131 -91
131 -106 0 -6 -53 -32 -117 -58 -295 -121 -587 -301 -825 -507 -168 -146 -392
-391 -488 -534 -46 -68 -92 -125 -101 -125 -12 0 -56 145 -83 270 -55 258 -61
343 -60 788 0 315 3 415 12 425 30 29 758 31 982 2z m4529 -29 c12 -8 13 -64
8 -350 -4 -188 -11 -387 -17 -444 -32 -315 -105 -571 -205 -716 -23 -34 -47
-61 -54 -61 -7 0 -47 56 -88 125 -214 353 -471 626 -788 837 -122 82 -335 203
-418 238 -37 16 -71 33 -74 39 -10 15 106 116 183 159 188 105 461 160 868
177 243 10 567 8 585 -4z m-2509 -210 c63 -8 151 -22 194 -30 90 -18 434 -113
456 -126 11 -7 5 -20 -33 -67 -119 -145 -184 -269 -223 -423 -20 -77 -25 -121
-25 -235 -1 -123 2 -151 25 -229 90 -305 251 -497 531 -637 144 -71 251 -98
434 -106 285 -13 517 63 764 253 56 43 73 52 83 42 29 -32 178 -427 214 -568
46 -180 90 -473 90 -596 l0 -51 -52 -7 c-29 -3 -1312 -6 -2850 -6 -2227 0
-2798 3 -2805 13 -11 17 -5 97 22 292 30 216 63 364 122 540 108 329 279 638
506 915 96 116 322 340 437 431 437 348 986 567 1525 609 145 11 442 4 585
-14z m1288 -753 c129 -61 180 -224 112 -360 -48 -96 -130 -143 -250 -143 -56
0 -139 39 -175 82 -96 114 -97 256 -1 365 45 51 64 62 131 79 63 16 116 9 183
-23z"/>
<path d="M3029 6236 c-140 -50 -210 -229 -143 -364 49 -99 160 -162 262 -148
58 8 137 51 173 96 60 72 75 190 35 275 -60 126 -200 187 -327 141z"/>
<path d="M4622 5241 c-29 -10 -65 -30 -81 -45 -35 -34 -73 -34 -96 0 -22 35
-73 54 -140 54 -67 0 -110 -17 -153 -60 -44 -43 -64 -94 -65 -160 -2 -109 60
-202 239 -362 68 -60 124 -113 124 -116 -1 -12 -130 -81 -171 -92 -64 -17
-146 12 -261 93 -56 40 -58 40 -72 21 -19 -25 -6 -46 59 -96 129 -98 290 -104
425 -17 33 21 63 39 65 39 3 0 26 -15 52 -34 96 -68 170 -85 264 -61 77 20
109 36 175 87 52 39 68 65 54 88 -5 8 -21 2 -56 -23 -68 -48 -120 -73 -191
-91 -59 -15 -64 -15 -117 4 -30 12 -73 38 -97 59 l-42 37 48 40 c169 138 242
217 283 304 62 132 24 264 -93 323 -52 26 -96 28 -153 8z"/>
<path d="M3372 3935 c-110 -25 -194 -89 -261 -200 -44 -72 -61 -137 -68 -252
-10 -170 34 -297 142 -410 l60 -62 45 16 c30 11 88 18 176 21 118 3 137 2 180
-18 29 -12 58 -19 72 -15 36 9 154 134 184 195 35 70 48 139 48 255 0 214
-134 413 -311 460 -83 23 -195 27 -267 10z m202 -110 c95 -10 175 -78 230
-195 39 -84 48 -216 21 -301 -53 -166 -137 -240 -298 -261 -113 -15 -174 3
-251 73 -125 114 -167 308 -105 475 26 68 102 155 164 186 41 22 122 37 165
32 14 -2 47 -6 74 -9z"/>
<path d="M6716 3939 c-165 -18 -298 -133 -353 -306 -41 -131 -29 -322 28 -436
74 -146 224 -237 391 -237 210 0 358 101 435 297 24 61 27 81 27 193 0 111 -3
132 -26 191 -90 228 -254 326 -502 298z m166 -110 c119 -25 211 -121 248 -258
18 -69 14 -197 -9 -263 -37 -106 -97 -174 -191 -217 -58 -27 -194 -29 -266 -4
-72 24 -152 108 -189 198 -26 62 -29 81 -29 175 0 97 3 110 32 171 78 164 225
235 404 198z"/>
<path d="M1510 3450 l0 -470 55 0 54 0 3 158 3 157 190 6 c247 7 283 20 355
124 86 124 50 366 -66 442 -69 45 -127 53 -366 53 l-228 0 0 -470z m527 334
c48 -35 73 -97 73 -185 0 -69 -3 -80 -30 -117 -54 -75 -61 -77 -270 -77 l-185
0 -3 190 c-1 104 0 195 3 203 4 11 42 13 194 10 173 -3 192 -5 218 -24z"/>
<path d="M2290 3452 l0 -470 51 -4 c28 -1 53 -1 55 1 2 2 4 77 4 167 l0 162
28 6 c15 3 64 2 108 -2 l81 -7 89 -99 c49 -54 113 -127 142 -162 l53 -64 70 0
c48 0 69 4 69 13 0 6 -63 80 -140 162 -77 83 -140 153 -140 156 0 4 21 14 48
24 82 31 129 72 165 144 59 119 37 253 -56 349 -82 85 -88 87 -374 90 l-253 3
0 -469z m497 339 c62 -29 98 -95 98 -183 0 -59 -3 -70 -31 -105 -55 -69 -85
-78 -279 -78 l-170 0 -3 180 c-1 98 0 185 2 192 4 10 46 13 173 13 143 0 174
-3 210 -19z"/>
<path d="M4302 3868 l3 -53 136 4 c74 2 150 0 168 -4 l33 -7 -4 -277 c-5 -309
-6 -315 -76 -387 -57 -58 -111 -77 -210 -73 -68 4 -85 8 -122 34 -55 38 -109
122 -119 185 -10 63 -26 82 -65 78 -28 -3 -31 -6 -34 -43 -9 -102 47 -232 125
-291 89 -67 239 -96 348 -66 65 18 147 73 187 127 67 89 70 105 75 447 3 168
3 322 -1 342 l-7 36 -220 0 -220 0 3 -52z"/>
<path d="M4840 3450 l0 -470 324 0 c360 0 336 -5 336 71 l0 39 -275 0 -275 0
0 155 0 155 254 0 254 0 4 51 c1 28 1 53 -1 55 -2 2 -118 4 -258 4 l-254 0 3
148 3 147 265 5 c146 3 264 8 263 13 -2 4 -3 27 -3 52 l0 45 -320 0 -320 0 0
-470z"/>
<path d="M5568 3874 c-2 -25 -1 -47 1 -50 2 -2 68 -4 145 -4 78 0 147 -4 153
-8 10 -6 13 -105 15 -418 l3 -409 46 -3 46 -3 6 77 c4 42 7 229 7 415 l0 338
157 3 156 3 3 53 4 52 -369 0 -369 0 -4 -46z"/>
<path d="M865 2113 l-250 -3 3 -44 4 -44 196 -4 c321 -5 7530 -3 7535 2 3 3 7
25 8 50 l4 45 -3625 0 c-1994 0 -3738 -1 -3875 -2z"/>
</g>
</svg>
